<svg id="Calque_1" data-name="Calque 1" xmlns="http://www.w3.org/2000/svg" viewBox="0 0 326.98 326.98"><defs><style>.cls-1,.cls-7{fill:#fff;}.cls-2,.cls-3,.cls-4,.cls-5{fill:none;stroke-miterlimit:10;}.cls-2,.cls-4{stroke:#b4bfef;}.cls-2{stroke-width:0.46px;}.cls-3{stroke:#2d2d2e;stroke-linecap:square;stroke-width:0.85px;stroke-dasharray:2.55 2.55;}.cls-4{stroke-width:0.46px;}.cls-5{stroke:#2436f5;}.cls-6{fill:#2436f5;}.cls-7{font-size:16px;font-family:Poppins-Medium, Poppins Medium;font-weight:500;}</style></defs><rect class="cls-1" width="326.98" height="326.98"/><line class="cls-2" x1="33.02" y1="53.36" x2="33.02" y2="273.62"/><line class="cls-2" x1="293.96" y1="53.36" x2="293.96" y2="273.62"/><path class="cls-3" d="M156.23,244.65s-26.11,2.82-46.72,12.5C86.94,267.75,26,277,33.68,200.55S90.36,67.51,149.34,60.9s60.5,61.74,105.69,94.82,44.43,69.82,30.64,86.73-42.89,31.61-73.53,19.84S177.15,243,156.23,244.65Z"/><line class="cls-4" x1="303.27" y1="60.45" x2="23.71" y2="60.45"/><line class="cls-4" x1="303.27" y1="266.53" x2="23.71" y2="266.53"/><line class="cls-5" x1="286.79" y1="60.9" x2="40.19" y2="60.9"/><polygon class="cls-6" points="285.33 55.92 293.96 60.9 285.33 65.89 285.33 55.92"/><polygon class="cls-6" points="41.65 55.92 33.02 60.9 41.65 65.89 41.65 55.92"/><rect class="cls-6" x="148.86" y="45.82" width="29.26" height="29.26" rx="6.05"/><text class="cls-7" transform="translate(158.03 66.22)">A</text><line class="cls-5" x1="293.96" y1="68.53" x2="293.96" y2="259.36"/><polygon class="cls-6" points="288.98 69.99 293.96 61.36 298.95 69.99 288.98 69.99"/><polygon class="cls-6" points="288.98 257.9 293.96 266.53 298.95 257.9 288.98 257.9"/><rect class="cls-6" x="279.33" y="148.86" width="29.26" height="29.26" rx="6.05"/><text class="cls-7" transform="translate(289.02 169.26)">B</text></svg>